<?xml version="1.0" encoding="utf-8"?>
<!-- Generator: Adobe Illustrator 26.0.1, SVG Export Plug-In . SVG Version: 6.00 Build 0)  -->
<svg version="1.1" id="Layer_1" xmlns="http://www.w3.org/2000/svg" xmlns:xlink="http://www.w3.org/1999/xlink" x="0px" y="0px"
	 viewBox="0 0 64 64" style="enable-background:new 0 0 64 64;" xml:space="preserve">
<style type="text/css">
	.st0{fill:#BBE3FC;}
	.st1{fill:#FED402;}
	.st2{fill:#FAC600;}
	.st3{fill:#D8ECFE;}
	.st4{fill:#EAF6FF;}
	.st5{fill:#C6C5CA;}
	.st6{fill:#D8D7DA;}
	.st7{fill:#99DDFF;}
	.st8{fill:#C6C6C6;}
	.st9{fill:#DDDDDD;}
	.st10{fill:#BABABA;}
</style>
<g>
	<path class="st2" d="M55.7,30.5c-1,6.3-7,10.6-13.3,9.6c-0.6-0.1-1.3-0.3-1.8-0.5c-5.3-1.8-8.6-7.1-7.7-12.8
		c0.9-5.7,5.8-9.7,11.4-9.7c0.6,0,1.3,0,1.9,0.1C52.4,18.2,56.7,24.2,55.7,30.5z"/>
</g>
<g>
	<path class="st1" d="M53.6,30.1c-0.8,5.2-5.7,8.7-10.9,7.9c-0.5-0.1-1-0.2-1.5-0.4c-4.3-1.5-7.1-5.9-6.3-10.5c0.8-4.7,4.8-8,9.4-8
		c0.5,0,1,0,1.6,0.1C51,20.1,54.5,24.9,53.6,30.1z"/>
</g>
<g>
	<path class="st1" d="M46.6,15.1c-0.1,0-0.1,0-0.2,0c-0.5-0.1-0.9-0.6-0.8-1.1l0.6-3.5c0.1-0.5,0.6-0.9,1.1-0.8
		c0.5,0.1,0.9,0.6,0.8,1.1l-0.6,3.5C47.5,14.8,47.1,15.1,46.6,15.1z"/>
</g>
<g>
	<path class="st1" d="M56.2,21c-0.3,0-0.6-0.1-0.8-0.4c-0.3-0.4-0.2-1.1,0.2-1.4l2.9-2.1c0.4-0.3,1.1-0.2,1.4,0.2s0.2,1.1-0.2,1.4
		l-2.9,2.1C56.6,21,56.4,21,56.2,21z"/>
</g>
<g>
	<path class="st1" d="M62.3,32.5c-0.1,0-0.1,0-0.2,0L58.6,32c-0.5-0.1-0.9-0.6-0.8-1.1c0.1-0.5,0.6-0.9,1.1-0.8l3.5,0.6
		c0.5,0.1,0.9,0.6,0.8,1.1C63.2,32.2,62.8,32.5,62.3,32.5z"/>
</g>
<g>
	<path class="st1" d="M54.9,44.4c-0.3,0-0.6-0.1-0.8-0.4L52,41.1c-0.3-0.4-0.2-1.1,0.2-1.4c0.4-0.3,1.1-0.2,1.4,0.2l2.1,2.9
		c0.3,0.4,0.2,1.1-0.2,1.4C55.3,44.4,55.1,44.4,54.9,44.4z"/>
</g>
<g>
	<path class="st1" d="M41.3,47.6c-0.1,0-0.1,0-0.2,0c-0.5-0.1-0.9-0.6-0.8-1.1l0.6-3.5c0.1-0.5,0.6-0.9,1.1-0.8
		c0.5,0.1,0.9,0.6,0.8,1.1l-0.6,3.5C42.2,47.3,41.8,47.6,41.3,47.6z"/>
</g>
<g>
	<path class="st1" d="M29.4,40.3c-0.3,0-0.6-0.1-0.8-0.4c-0.3-0.4-0.2-1.1,0.2-1.4l2.9-2.1c0.4-0.3,1.1-0.2,1.4,0.2
		c0.3,0.4,0.2,1.1-0.2,1.4L30,40.1C29.8,40.2,29.6,40.3,29.4,40.3z"/>
</g>
<g>
	<path class="st1" d="M29.8,27.2c-0.1,0-0.1,0-0.2,0l-3.5-0.6c-0.5-0.1-0.9-0.6-0.8-1.1c0.1-0.5,0.6-0.9,1.1-0.8l3.5,0.6
		c0.5,0.1,0.9,0.6,0.8,1.1C30.7,26.9,30.3,27.2,29.8,27.2z"/>
</g>
<g>
	<path class="st1" d="M35.7,17.7c-0.3,0-0.6-0.1-0.8-0.4l-2.1-2.9c-0.3-0.4-0.2-1.1,0.2-1.4c0.4-0.3,1.1-0.2,1.4,0.2l2.1,2.9
		c0.3,0.4,0.2,1.1-0.2,1.4C36.1,17.6,35.9,17.7,35.7,17.7z"/>
</g>
<g>
	<circle class="st1" cx="52" cy="16" r="1.2"/>
</g>
<g>
	<circle class="st1" cx="58.7" cy="25.2" r="1.2"/>
</g>
<g>
	<circle class="st1" cx="47.7" cy="43.1" r="1.2"/>
</g>
<g>
	<circle class="st1" cx="36.5" cy="41.3" r="1.2"/>
</g>
<g>
	<circle class="st1" cx="29.8" cy="32" r="1.2"/>
</g>
<g>
	<circle class="st1" cx="40.8" cy="14.2" r="1.2"/>
</g>
<g>
	<path class="st3" d="M58.5,44.2c0,5-4,9.1-9,9.2H13c-6.2,0-11.3-5.1-11.3-11.3c0-5.8,4.5-10.7,10.3-11.2c1.8-6,7.3-10.2,13.7-10.2
		c0.8,0,1.5,0.1,2.3,0.2c4.7,0.8,8.8,3.9,10.7,8.2c0.2,0.4,0.3,0.8,0.5,1.1c0.8,0.1,1.5,0.2,2.3,0.5c2.2,0.8,4.1,2.4,5.2,4.6
		c0.9-0.3,1.8-0.4,2.7-0.4c0.6,0,1.2,0.1,1.8,0.2c0.2,0,0.4,0.1,0.5,0.1C55.6,36.3,58.5,39.9,58.5,44.2z"/>
</g>
<g>
	<path class="st4" d="M13,50.4c-4.6,0-8.3-3.7-8.3-8.3c0-4.2,3.3-7.8,7.5-8.2l2-0.2l0.6-2c1.4-4.8,5.7-8.1,10.8-8.1
		c0.6,0,1.2,0,1.8,0.1c3.7,0.6,7,3.1,8.5,6.5c0.1,0.3,0.3,0.6,0.4,0.9l0.7,1.8l1.9,0.1c0.5,0,1,0.1,1.5,0.3c1.5,0.5,2.8,1.7,3.5,3.1
		L45,39l2.4-0.7c0.6-0.2,1.2-0.3,1.8-0.3c0.4,0,0.8,0,1.2,0.1l0.1,0c0.1,0,0.2,0,0.3,0.1c2.7,0.7,4.6,3.2,4.6,6
		c0,3.3-2.7,6.1-6.1,6.2H13z"/>
</g>
</svg>
