<?xml version="1.0" encoding="utf-8"?>
<!-- Generator: Adobe Illustrator 26.0.1, SVG Export Plug-In . SVG Version: 6.00 Build 0)  -->
<svg version="1.1" id="Layer_1" xmlns="http://www.w3.org/2000/svg" xmlns:xlink="http://www.w3.org/1999/xlink" x="0px" y="0px"
	 viewBox="0 0 64 64" style="enable-background:new 0 0 64 64;" xml:space="preserve">
<style type="text/css">
	.st0{fill:#BBE3FC;}
	.st1{fill:#FED402;}
	.st2{fill:#FAC600;}
	.st3{fill:#D8ECFE;}
	.st4{fill:#EAF6FF;}
	.st5{fill:#C6C5CA;}
	.st6{fill:#D8D7DA;}
	.st7{fill:#99DDFF;}
	.st8{fill:#C6C6C6;}
	.st9{fill:#DDDDDD;}
	.st10{fill:#BABABA;}
</style>
<g>
	<circle class="st1" cx="49.6" cy="28.9" r="1.2"/>
</g>
<g>
	<circle class="st1" cx="38.3" cy="27.1" r="1.2"/>
</g>
<g>
	<circle class="st1" cx="31.7" cy="17.9" r="1.2"/>
</g>
<g>
	<path class="st0" d="M60.4,30c0,5-4,9.1-9,9.2H14.9C8.7,39.3,3.6,34.2,3.6,28c0-5.8,4.5-10.7,10.3-11.2c1.8-6,7.3-10.2,13.7-10.2
		c0.8,0,1.5,0.1,2.3,0.2c4.7,0.8,8.8,3.9,10.7,8.2c0.2,0.4,0.3,0.8,0.5,1.1c0.8,0.1,1.5,0.2,2.3,0.5c2.2,0.8,4.1,2.4,5.2,4.6
		c0.9-0.3,1.8-0.4,2.7-0.4c0.6,0,1.2,0.1,1.8,0.2c0.2,0,0.4,0.1,0.5,0.1C57.5,22.2,60.4,25.8,60.4,30z"/>
</g>
<g>
	<path class="st3" d="M14.9,36.3c-4.6,0-8.3-3.7-8.3-8.3c0-4.2,3.3-7.8,7.5-8.2l2-0.2l0.6-2c1.4-4.8,5.7-8.1,10.8-8.1
		c0.6,0,1.2,0,1.8,0.1c3.7,0.6,7,3.1,8.5,6.5c0.1,0.3,0.3,0.6,0.4,0.9l0.7,1.8l1.9,0.1c0.5,0,1,0.1,1.5,0.3c1.5,0.5,2.8,1.7,3.5,3.1
		l1.1,2.3l2.4-0.7c0.6-0.2,1.2-0.3,1.8-0.3c0.4,0,0.8,0,1.2,0.1l0.1,0c0.1,0,0.2,0,0.3,0.1c2.7,0.7,4.6,3.2,4.6,6
		c0,3.3-2.7,6.1-6.1,6.2H14.9z"/>
</g>
<g>
	<path class="st0" d="M13.5,48.7c-0.1,0-0.2,0-0.3-0.1c-0.5-0.2-0.8-0.8-0.6-1.3l1.5-4c0.2-0.5,0.8-0.8,1.3-0.6
		c0.5,0.2,0.8,0.8,0.6,1.3l-1.5,4C14.3,48.4,13.9,48.7,13.5,48.7z"/>
</g>
<g>
	<path class="st0" d="M22.2,48.7c-0.1,0-0.2,0-0.3-0.1c-0.5-0.2-0.8-0.8-0.6-1.3l1.5-4c0.2-0.5,0.8-0.8,1.3-0.6
		c0.5,0.2,0.8,0.8,0.6,1.3l-1.5,4C23,48.4,22.6,48.7,22.2,48.7z"/>
</g>
<g>
	<path class="st0" d="M30.9,48.7c-0.1,0-0.2,0-0.3-0.1c-0.5-0.2-0.8-0.8-0.6-1.3l1.5-4c0.2-0.5,0.8-0.8,1.3-0.6
		c0.5,0.2,0.8,0.8,0.6,1.3l-1.5,4C31.7,48.4,31.3,48.7,30.9,48.7z"/>
</g>
<g>
	<path class="st0" d="M39.6,48.7c-0.1,0-0.2,0-0.3-0.1c-0.5-0.2-0.8-0.8-0.6-1.3l1.5-4c0.2-0.5,0.8-0.8,1.3-0.6
		c0.5,0.2,0.8,0.8,0.6,1.3l-1.5,4C40.4,48.4,40,48.7,39.6,48.7z"/>
</g>
<g>
	<path class="st0" d="M15.1,58.5c-0.1,0-0.2,0-0.3-0.1c-0.5-0.2-0.8-0.8-0.6-1.3l1.5-4c0.2-0.5,0.8-0.8,1.3-0.6
		c0.5,0.2,0.8,0.8,0.6,1.3l-1.5,4C15.9,58.2,15.5,58.5,15.1,58.5z"/>
</g>
<g>
	<path class="st0" d="M23.7,58.5c-0.1,0-0.2,0-0.3-0.1c-0.5-0.2-0.8-0.8-0.6-1.3l1.5-4c0.2-0.5,0.8-0.8,1.3-0.6
		c0.5,0.2,0.8,0.8,0.6,1.3l-1.5,4C24.5,58.2,24.1,58.5,23.7,58.5z"/>
</g>
<g>
	<path class="st0" d="M32.4,58.5c-0.1,0-0.2,0-0.3-0.1c-0.5-0.2-0.8-0.8-0.6-1.3l1.5-4c0.2-0.5,0.8-0.8,1.3-0.6
		c0.5,0.2,0.8,0.8,0.6,1.3l-1.5,4C33.2,58.2,32.8,58.5,32.4,58.5z"/>
</g>
<g>
	<path class="st0" d="M41.1,58.5c-0.1,0-0.2,0-0.3-0.1c-0.5-0.2-0.8-0.8-0.6-1.3l1.5-4c0.2-0.5,0.8-0.8,1.3-0.6
		c0.5,0.2,0.8,0.8,0.6,1.3l-1.5,4C41.9,58.2,41.5,58.5,41.1,58.5z"/>
</g>
<g>
	<path class="st0" d="M48.2,48.7c-0.1,0-0.2,0-0.3-0.1c-0.5-0.2-0.8-0.8-0.6-1.3l1.5-4c0.2-0.5,0.8-0.8,1.3-0.6
		c0.5,0.2,0.8,0.8,0.6,1.3l-1.5,4C49,48.4,48.7,48.7,48.2,48.7z"/>
</g>
</svg>
