<?xml version="1.0" encoding="utf-8"?>
<!-- Generator: Adobe Illustrator 26.0.1, SVG Export Plug-In . SVG Version: 6.00 Build 0)  -->
<svg version="1.1" id="Layer_1" xmlns="http://www.w3.org/2000/svg" xmlns:xlink="http://www.w3.org/1999/xlink" x="0px" y="0px"
	 viewBox="0 0 64 64" style="enable-background:new 0 0 64 64;" xml:space="preserve">
<style type="text/css">
	.st0{fill:#BBE3FC;}
	.st1{fill:#FED402;}
	.st2{fill:#FAC600;}
	.st3{fill:#D8ECFE;}
	.st4{fill:#EAF6FF;}
	.st5{fill:#C6C5CA;}
	.st6{fill:#D8D7DA;}
	.st7{fill:#99DDFF;}
	.st8{fill:#C6C6C6;}
	.st9{fill:#DDDDDD;}
	.st10{fill:#BABABA;}
</style>
<g>
	<path class="st5" d="M62.1,21.3c0,4-3.2,7.3-7.2,7.4H25.8c-5,0-9-4-9-9c0-4.7,3.6-8.5,8.2-9c1.4-4.8,5.8-8.2,10.9-8.2
		c0.6,0,1.2,0,1.8,0.2c3.8,0.6,7,3.1,8.6,6.6c0.1,0.3,0.3,0.6,0.4,0.9c0.6,0,1.2,0.2,1.8,0.4c1.8,0.6,3.3,1.9,4.2,3.7
		c0.7-0.2,1.4-0.3,2.1-0.3c0.5,0,1,0,1.4,0.1c0.1,0,0.3,0.1,0.4,0.1C59.7,15,62.1,17.8,62.1,21.3z"/>
</g>
<g>
	<path class="st6" d="M26,26.2c-3.6,0-6.6-3-6.6-6.6c0-3.4,2.6-6.3,6-6.6l1.6-0.1l0.5-1.6c1.1-3.9,4.6-6.4,8.6-6.4
		c0.5,0,1,0,1.4,0.1c3,0.5,5.6,2.5,6.8,5.2c0.1,0.3,0.2,0.5,0.3,0.7l0.5,1.5l1.5,0.1c0.4,0,0.8,0.1,1.2,0.3c1.2,0.4,2.3,1.3,2.8,2.5
		l0.9,1.8l1.9-0.6c0.5-0.1,1-0.2,1.5-0.2c0.3,0,0.6,0,0.9,0.1l0.1,0c0.1,0,0.2,0,0.3,0.1C58.5,17,60,19,60,21.3c0,2.7-2.2,4.9-4.8,5
		H26z"/>
</g>
<g>
	<path class="st5" d="M56.6,30.9c0,4.8-3.9,8.8-8.7,8.9H12.8c-6,0-10.8-4.9-10.8-10.8c0-5.6,4.4-10.3,9.9-10.8
		c1.7-5.8,7-9.8,13.2-9.8c0.7,0,1.5,0.1,2.2,0.2c4.5,0.7,8.4,3.7,10.3,7.9c0.2,0.4,0.3,0.7,0.4,1.1c0.8,0.1,1.5,0.2,2.2,0.5
		c2.2,0.8,4,2.3,5,4.4c0.8-0.3,1.7-0.4,2.6-0.4c0.6,0,1.2,0.1,1.7,0.2c0.2,0,0.3,0.1,0.5,0.1C53.7,23.3,56.6,26.8,56.6,30.9z"/>
</g>
<g>
	<path class="st6" d="M13.1,36.9c-4.4,0-8-3.6-8-8c0-4.1,3.2-7.6,7.3-7.9l2-0.2l0.6-1.9c1.4-4.6,5.5-7.8,10.4-7.8
		c0.6,0,1.2,0,1.7,0.1c3.6,0.6,6.7,3,8.2,6.3c0.1,0.3,0.3,0.6,0.4,0.9l0.6,1.8l1.9,0.1c0.5,0,1,0.1,1.4,0.3c1.5,0.5,2.7,1.6,3.4,3
		l1.1,2.2l2.3-0.7c0.6-0.2,1.2-0.3,1.8-0.3c0.4,0,0.8,0,1.1,0.1l0.1,0c0.1,0,0.2,0,0.3,0.1c2.6,0.7,4.4,3.1,4.4,5.8
		c0,3.2-2.6,5.9-5.8,6H13.1z"/>
</g>
<g>
	<path class="st5" d="M48.5,43.2H22.8c-1.1,0-2,0.9-2,2c0,1.1,0.9,2,2,2h2.5c0.8,0,1.4,0.7,1.4,1.5c0,0.4-0.2,0.8-0.4,1
		c-0.3,0.3-0.6,0.4-1,0.4H10.6c-1.1,0-2,0.9-2,2s0.9,2,2,2h25.6c1.1,0,2-0.9,2-2s-0.9-2-2-2h-3.7c-0.8,0-1.5-0.7-1.5-1.5
		c0-0.4,0.2-0.8,0.4-1.1c0.3-0.3,0.6-0.4,1-0.4h16.1c1.1,0,2-0.9,2-2C50.5,44.1,49.6,43.2,48.5,43.2z"/>
</g>
<g>
	<path class="st5" d="M23.5,57.5h-3.5c-1.1,0-2,0.9-2,2c0,1.1,0.9,2,2,2h3.5c1.1,0,2-0.9,2-2C25.4,58.4,24.5,57.5,23.5,57.5z"/>
</g>
<g>
	<path class="st5" d="M43,57.5H30.7c-1.1,0-2,0.9-2,2c0,1.1,0.9,2,2,2H43c1.1,0,2-0.9,2-2C45,58.4,44.1,57.5,43,57.5z"/>
</g>
</svg>
