<?xml version="1.0" encoding="utf-8"?>
<!-- Generator: Adobe Illustrator 26.0.1, SVG Export Plug-In . SVG Version: 6.00 Build 0)  -->
<svg version="1.1" id="Layer_1" xmlns="http://www.w3.org/2000/svg" xmlns:xlink="http://www.w3.org/1999/xlink" x="0px" y="0px"
	 viewBox="0 0 64 64" style="enable-background:new 0 0 64 64;" xml:space="preserve">
<style type="text/css">
	.st0{fill:#BBE3FC;}
	.st1{fill:#FED402;}
	.st2{fill:#FAC600;}
	.st3{fill:#D8ECFE;}
	.st4{fill:#EAF6FF;}
	.st5{fill:#C6C5CA;}
	.st6{fill:#D8D7DA;}
	.st7{fill:#99DDFF;}
	.st8{fill:#C6C6C6;}
	.st9{fill:#DDDDDD;}
	.st10{fill:#BABABA;}
</style>
<g>
	<g>
		<path class="st7" d="M17.1,48.9c-0.3,0-0.5-0.2-0.5-0.5v-4c0-0.3,0.2-0.5,0.5-0.5s0.5,0.2,0.5,0.5v4
			C17.6,48.7,17.4,48.9,17.1,48.9z"/>
	</g>
	<g>
		<path class="st7" d="M15.5,48.1c-0.2,0-0.3-0.1-0.4-0.2c-0.2-0.2-0.1-0.5,0.1-0.7l1.6-1.1c0,0,0,0,0,0l1.6-1.2
			c0.2-0.2,0.5-0.1,0.7,0.1c0.2,0.2,0.1,0.5-0.1,0.7l-1.6,1.1c0,0,0,0,0,0L15.8,48C15.7,48.1,15.6,48.1,15.5,48.1z"/>
	</g>
	<g>
		<path class="st7" d="M18.8,48.1c-0.1,0-0.2,0-0.3-0.1l-1.6-1.2c0,0,0,0,0,0l-1.6-1.1c-0.2-0.2-0.3-0.5-0.1-0.7
			c0.2-0.2,0.5-0.3,0.7-0.1l1.6,1.2c0,0,0,0,0,0l1.6,1.1c0.2,0.2,0.3,0.5,0.1,0.7C19.1,48,18.9,48.1,18.8,48.1z"/>
	</g>
</g>
<g>
	<g>
		<path class="st7" d="M27,48.9c-0.3,0-0.5-0.2-0.5-0.5v-4c0-0.3,0.2-0.5,0.5-0.5s0.5,0.2,0.5,0.5v4C27.5,48.7,27.3,48.9,27,48.9z"
			/>
	</g>
	<g>
		<path class="st7" d="M25.4,48.1c-0.2,0-0.3-0.1-0.4-0.2c-0.2-0.2-0.1-0.5,0.1-0.7l1.6-1.1c0,0,0,0,0,0l1.6-1.2
			c0.2-0.2,0.5-0.1,0.7,0.1c0.2,0.2,0.1,0.5-0.1,0.7l-1.6,1.1c0,0,0,0,0,0L25.7,48C25.6,48.1,25.5,48.1,25.4,48.1z"/>
	</g>
	<g>
		<path class="st7" d="M28.6,48.1c-0.1,0-0.2,0-0.3-0.1l-1.6-1.2c0,0,0,0,0,0l-1.6-1.1c-0.2-0.2-0.3-0.5-0.1-0.7
			c0.2-0.2,0.5-0.3,0.7-0.1l1.6,1.2c0,0,0,0,0,0l1.6,1.1c0.2,0.2,0.3,0.5,0.1,0.7C28.9,48,28.8,48.1,28.6,48.1z"/>
	</g>
</g>
<g>
	<g>
		<path class="st7" d="M36.8,48.9c-0.3,0-0.5-0.2-0.5-0.5v-4c0-0.3,0.2-0.5,0.5-0.5s0.5,0.2,0.5,0.5v4
			C37.3,48.7,37.1,48.9,36.8,48.9z"/>
	</g>
	<g>
		<path class="st7" d="M35.2,48.1c-0.2,0-0.3-0.1-0.4-0.2c-0.2-0.2-0.1-0.5,0.1-0.7l1.6-1.1c0,0,0,0,0,0l1.6-1.2
			c0.2-0.2,0.5-0.1,0.7,0.1c0.2,0.2,0.1,0.5-0.1,0.7l-1.6,1.1c0,0,0,0,0,0L35.5,48C35.4,48.1,35.3,48.1,35.2,48.1z"/>
	</g>
	<g>
		<path class="st7" d="M38.5,48.1c-0.1,0-0.2,0-0.3-0.1l-1.6-1.2c0,0,0,0,0,0l-1.6-1.1c-0.2-0.2-0.3-0.5-0.1-0.7
			c0.2-0.2,0.5-0.3,0.7-0.1l1.6,1.2c0,0,0,0,0,0l1.6,1.1c0.2,0.2,0.3,0.5,0.1,0.7C38.8,48,38.6,48.1,38.5,48.1z"/>
	</g>
</g>
<g>
	<g>
		<path class="st7" d="M46.7,48.9c-0.3,0-0.5-0.2-0.5-0.5v-4c0-0.3,0.2-0.5,0.5-0.5s0.5,0.2,0.5,0.5v4C47.2,48.7,47,48.9,46.7,48.9z
			"/>
	</g>
	<g>
		<path class="st7" d="M45.1,48.1c-0.2,0-0.3-0.1-0.4-0.2c-0.2-0.2-0.1-0.5,0.1-0.7l1.6-1.1c0,0,0,0,0,0l1.6-1.2
			c0.2-0.2,0.5-0.1,0.7,0.1c0.2,0.2,0.1,0.5-0.1,0.7L47,46.8c0,0,0,0,0,0L45.4,48C45.3,48.1,45.2,48.1,45.1,48.1z"/>
	</g>
	<g>
		<path class="st7" d="M48.3,48.1c-0.1,0-0.2,0-0.3-0.1l-1.6-1.2c0,0,0,0,0,0l-1.6-1.1c-0.2-0.2-0.3-0.5-0.1-0.7
			c0.2-0.2,0.5-0.3,0.7-0.1L47,46c0,0,0,0,0,0l1.6,1.1c0.2,0.2,0.3,0.5,0.1,0.7C48.6,48,48.5,48.1,48.3,48.1z"/>
	</g>
</g>
<g>
	<g>
		<path class="st7" d="M22.1,56.3c-0.3,0-0.5-0.2-0.5-0.5v-4c0-0.3,0.2-0.5,0.5-0.5s0.5,0.2,0.5,0.5v4C22.6,56,22.3,56.3,22.1,56.3z
			"/>
	</g>
	<g>
		<path class="st7" d="M20.4,55.4c-0.2,0-0.3-0.1-0.4-0.2c-0.2-0.2-0.1-0.5,0.1-0.7l1.6-1.1c0,0,0,0,0,0l1.6-1.2
			c0.2-0.2,0.5-0.1,0.7,0.1c0.2,0.2,0.1,0.5-0.1,0.7l-1.6,1.1c0,0,0,0,0,0l-1.6,1.2C20.6,55.4,20.5,55.4,20.4,55.4z"/>
	</g>
	<g>
		<path class="st7" d="M23.7,55.4c-0.1,0-0.2,0-0.3-0.1l-1.6-1.2c0,0,0,0,0,0L20.1,53c-0.2-0.2-0.3-0.5-0.1-0.7
			c0.2-0.2,0.5-0.3,0.7-0.1l1.6,1.2c0,0,0,0,0,0l1.6,1.1c0.2,0.2,0.3,0.5,0.1,0.7C24,55.3,23.8,55.4,23.7,55.4z"/>
	</g>
</g>
<g>
	<g>
		<path class="st7" d="M31.9,56.3c-0.3,0-0.5-0.2-0.5-0.5v-4c0-0.3,0.2-0.5,0.5-0.5s0.5,0.2,0.5,0.5v4C32.4,56,32.2,56.3,31.9,56.3z
			"/>
	</g>
	<g>
		<path class="st7" d="M30.3,55.4c-0.2,0-0.3-0.1-0.4-0.2c-0.2-0.2-0.1-0.5,0.1-0.7l1.6-1.1c0,0,0,0,0,0l1.6-1.2
			c0.2-0.2,0.5-0.1,0.7,0.1c0.2,0.2,0.1,0.5-0.1,0.7l-1.6,1.1c0,0,0,0,0,0l-1.6,1.2C30.5,55.4,30.4,55.4,30.3,55.4z"/>
	</g>
	<g>
		<path class="st7" d="M33.5,55.4c-0.1,0-0.2,0-0.3-0.1l-1.6-1.2c0,0,0,0,0,0L30,53c-0.2-0.2-0.3-0.5-0.1-0.7
			c0.2-0.2,0.5-0.3,0.7-0.1l1.6,1.2c0,0,0,0,0,0l1.6,1.1c0.2,0.2,0.3,0.5,0.1,0.7C33.9,55.3,33.7,55.4,33.5,55.4z"/>
	</g>
</g>
<g>
	<g>
		<path class="st7" d="M41.8,56.3c-0.3,0-0.5-0.2-0.5-0.5v-4c0-0.3,0.2-0.5,0.5-0.5s0.5,0.2,0.5,0.5v4C42.3,56,42,56.3,41.8,56.3z"
			/>
	</g>
	<g>
		<path class="st7" d="M40.1,55.4c-0.2,0-0.3-0.1-0.4-0.2c-0.2-0.2-0.1-0.5,0.1-0.7l1.6-1.1c0,0,0,0,0,0l1.6-1.2
			c0.2-0.2,0.5-0.1,0.7,0.1c0.2,0.2,0.1,0.5-0.1,0.7l-1.6,1.1c0,0,0,0,0,0l-1.6,1.2C40.3,55.4,40.2,55.4,40.1,55.4z"/>
	</g>
	<g>
		<path class="st7" d="M43.4,55.4c-0.1,0-0.2,0-0.3-0.1l-1.6-1.2c0,0,0,0,0,0L39.9,53c-0.2-0.2-0.3-0.5-0.1-0.7
			c0.2-0.2,0.5-0.3,0.7-0.1l1.6,1.1c0,0,0,0,0,0l1.6,1.1c0.2,0.2,0.3,0.5,0.1,0.7C43.7,55.3,43.6,55.4,43.4,55.4z"/>
	</g>
</g>
<g>
	<path class="st0" d="M60.4,31.8c0,5-4,9.1-9,9.2H14.9C8.7,41,3.6,35.9,3.6,29.7c0-5.8,4.5-10.7,10.3-11.2c1.8-6,7.3-10.2,13.7-10.2
		c0.8,0,1.5,0.1,2.3,0.2c4.7,0.8,8.8,3.9,10.7,8.2c0.2,0.4,0.3,0.8,0.5,1.1c0.8,0.1,1.5,0.2,2.3,0.5c2.2,0.8,4.1,2.4,5.2,4.6
		c0.9-0.3,1.8-0.4,2.7-0.4c0.6,0,1.2,0.1,1.8,0.2c0.2,0,0.4,0.1,0.5,0.1C57.5,23.9,60.4,27.5,60.4,31.8z"/>
</g>
<g>
	<path class="st3" d="M14.9,38c-4.6,0-8.3-3.7-8.3-8.3c0-4.2,3.3-7.8,7.5-8.2l2-0.2l0.6-2c1.4-4.8,5.7-8.1,10.8-8.1
		c0.6,0,1.2,0,1.8,0.1c3.7,0.6,7,3.1,8.5,6.5c0.1,0.3,0.3,0.6,0.4,0.9l0.7,1.8l1.9,0.1c0.5,0,1,0.1,1.5,0.3c1.5,0.5,2.8,1.7,3.5,3.1
		l1.1,2.3l2.4-0.7c0.6-0.2,1.2-0.3,1.8-0.3c0.4,0,0.8,0,1.2,0.1l0.1,0c0.1,0,0.2,0,0.3,0.1c2.7,0.7,4.6,3.2,4.6,6
		c0,3.3-2.7,6.1-6.1,6.2H14.9z"/>
</g>
</svg>
