<?xml version="1.0" encoding="utf-8"?>
<!-- Generator: Adobe Illustrator 26.0.1, SVG Export Plug-In . SVG Version: 6.00 Build 0)  -->
<svg version="1.1" id="Layer_1" xmlns="http://www.w3.org/2000/svg" xmlns:xlink="http://www.w3.org/1999/xlink" x="0px" y="0px"
	 viewBox="0 0 64 64" style="enable-background:new 0 0 64 64;" xml:space="preserve">
<style type="text/css">
	.st0{fill:#BBE3FC;}
	.st1{fill:#FED402;}
	.st2{fill:#FAC600;}
	.st3{fill:#D8ECFE;}
	.st4{fill:#EAF6FF;}
	.st5{fill:#C6C5CA;}
	.st6{fill:#D8D7DA;}
	.st7{fill:#99DDFF;}
	.st8{fill:#C6C6C6;}
	.st9{fill:#DDDDDD;}
	.st10{fill:#BABABA;}
</style>
<g>
	<g>
		<path class="st0" d="M9.4,43.8c-0.4-0.6-0.8-1.1-1-1.4c0,0-0.1-0.1-0.1-0.1c0,0-0.1,0-0.1,0.1c-0.2,0.3-0.6,0.8-1,1.4
			c-0.5,0.8-0.7,1.4-0.7,1.9c0,1,0.8,1.8,1.8,1.8s1.8-0.8,1.8-1.8C10.1,45.2,9.9,44.6,9.4,43.8z"/>
	</g>
	<g>
		<path class="st0" d="M19.6,43.8c-0.4-0.6-0.8-1.1-1-1.4c0,0-0.1-0.1-0.1-0.1c0,0-0.1,0-0.1,0.1c-0.2,0.3-0.6,0.8-1,1.4
			c-0.5,0.8-0.7,1.4-0.7,1.9c0,1,0.8,1.8,1.8,1.8c1,0,1.8-0.8,1.8-1.8C20.3,45.2,20.1,44.6,19.6,43.8z"/>
	</g>
	<g>
		<path class="st0" d="M29.8,43.8c-0.4-0.6-0.8-1.1-1-1.4c0,0-0.1-0.1-0.1-0.1c0,0-0.1,0-0.1,0.1c-0.2,0.3-0.6,0.8-1,1.4
			c-0.5,0.8-0.7,1.4-0.7,1.9c0,1,0.8,1.8,1.8,1.8s1.8-0.8,1.8-1.8C30.5,45.2,30.3,44.6,29.8,43.8z"/>
	</g>
	<g>
		<path class="st0" d="M40,43.8c-0.4-0.6-0.8-1.1-1-1.4c0,0-0.1-0.1-0.1-0.1c0,0-0.1,0-0.1,0.1c-0.2,0.3-0.6,0.8-1,1.4
			c-0.5,0.8-0.7,1.4-0.7,1.9c0,1,0.8,1.8,1.8,1.8s1.8-0.8,1.8-1.8C40.7,45.2,40.5,44.6,40,43.8z"/>
	</g>
	<g>
		<path class="st0" d="M50.2,43.8c-0.4-0.6-0.8-1.1-1-1.4c0,0-0.1-0.1-0.1-0.1c0,0-0.1,0-0.1,0.1c-0.2,0.3-0.6,0.8-1,1.4
			c-0.5,0.8-0.7,1.4-0.7,1.9c0,1,0.8,1.8,1.8,1.8s1.8-0.8,1.8-1.8C51,45.2,50.7,44.6,50.2,43.8z"/>
	</g>
</g>
<g>
	<g>
		<path class="st0" d="M14.5,51.5c-0.4-0.6-0.8-1.1-1-1.4c0,0-0.1-0.1-0.1-0.1c0,0-0.1,0-0.1,0.1c-0.2,0.3-0.6,0.8-1,1.4
			c-0.5,0.8-0.7,1.4-0.7,1.9c0,1,0.8,1.8,1.8,1.8s1.8-0.8,1.8-1.8C15.2,53,15,52.3,14.5,51.5z"/>
	</g>
	<g>
		<path class="st0" d="M24.7,51.5c-0.4-0.6-0.8-1.1-1-1.4c0,0-0.1-0.1-0.1-0.1c0,0-0.1,0-0.1,0.1c-0.2,0.3-0.6,0.8-1,1.4
			c-0.5,0.8-0.7,1.4-0.7,1.9c0,1,0.8,1.8,1.8,1.8s1.8-0.8,1.8-1.8C25.4,53,25.2,52.3,24.7,51.5z"/>
	</g>
	<g>
		<path class="st0" d="M34.9,51.5c-0.4-0.6-0.8-1.1-1-1.4c0,0-0.1-0.1-0.1-0.1c0,0-0.1,0-0.1,0.1c-0.2,0.3-0.6,0.8-1,1.4
			C32.2,52.3,32,53,32,53.5c0,1,0.8,1.8,1.8,1.8s1.8-0.8,1.8-1.8C35.6,53,35.4,52.3,34.9,51.5z"/>
	</g>
	<g>
		<path class="st0" d="M45.1,51.5c-0.4-0.6-0.8-1.1-1-1.4c0,0-0.1-0.1-0.1-0.1c0,0-0.1,0-0.1,0.1c-0.2,0.3-0.6,0.8-1,1.4
			c-0.5,0.8-0.7,1.4-0.7,1.9c0,1,0.8,1.8,1.8,1.8c1,0,1.8-0.8,1.8-1.8C45.8,53,45.6,52.3,45.1,51.5z"/>
	</g>
</g>
<g>
	<g>
		<path class="st0" d="M19.6,60.1c-0.4-0.6-0.8-1.1-1-1.4c0,0-0.1-0.1-0.1-0.1c0,0-0.1,0-0.1,0.1c-0.2,0.3-0.6,0.8-1,1.4
			c-0.5,0.8-0.7,1.4-0.7,1.9c0,1,0.8,1.8,1.8,1.8c1,0,1.8-0.8,1.8-1.8C20.3,61.6,20.1,60.9,19.6,60.1z"/>
	</g>
	<g>
		<path class="st0" d="M29.8,60.1c-0.4-0.6-0.8-1.1-1-1.4c0,0-0.1-0.1-0.1-0.1c0,0-0.1,0-0.1,0.1c-0.2,0.3-0.6,0.8-1,1.4
			c-0.5,0.8-0.7,1.4-0.7,1.9c0,1,0.8,1.8,1.8,1.8s1.8-0.8,1.8-1.8C30.5,61.6,30.3,60.9,29.8,60.1z"/>
	</g>
	<g>
		<path class="st0" d="M40,60.1c-0.4-0.6-0.8-1.1-1-1.4c0,0-0.1-0.1-0.1-0.1c0,0-0.1,0-0.1,0.1c-0.2,0.3-0.6,0.8-1,1.4
			c-0.5,0.8-0.7,1.4-0.7,1.9c0,1,0.8,1.8,1.8,1.8s1.8-0.8,1.8-1.8C40.7,61.6,40.5,60.9,40,60.1z"/>
	</g>
</g>
<g>
	<path class="st0" d="M63.7,19.9c0,4.2-3.4,7.7-7.6,7.7H25.4c-5.2,0-9.5-4.3-9.5-9.5c0-4.9,3.8-9,8.6-9.4c1.5-5.1,6.1-8.6,11.5-8.6
		c0.6,0,1.3,0.1,1.9,0.2c4,0.6,7.4,3.3,9,6.9c0.1,0.3,0.3,0.6,0.4,1c0.7,0.1,1.3,0.2,1.9,0.4c1.9,0.7,3.5,2.1,4.4,3.9
		c0.7-0.2,1.5-0.3,2.3-0.3c0.5,0,1,0.1,1.5,0.2c0.2,0,0.3,0.1,0.4,0.1C61.2,13.3,63.7,16.3,63.7,19.9z"/>
</g>
<g>
	<path class="st3" d="M25.7,25.1c-3.8,0-7-3.1-7-7c0-3.6,2.8-6.6,6.3-6.9l1.7-0.2l0.5-1.6c1.2-4.1,4.8-6.8,9.1-6.8
		c0.5,0,1,0,1.5,0.1C41,3.3,43.7,5.4,45,8.3c0.1,0.3,0.2,0.5,0.3,0.8l0.6,1.5l1.6,0.1c0.4,0,0.8,0.1,1.3,0.3c1.3,0.5,2.4,1.4,3,2.6
		l0.9,1.9l2.1-0.6c0.5-0.2,1-0.2,1.5-0.2c0.3,0,0.7,0,1,0.1l0.1,0c0.1,0,0.2,0,0.3,0.1c2.3,0.6,3.9,2.7,3.9,5c0,2.8-2.3,5.1-5.1,5.2
		H25.7z"/>
</g>
<g>
	<path class="st0" d="M57.9,30c0,5.1-4.1,9.2-9.2,9.3h-37C5.4,39.4,0.3,34.2,0.3,28c0-5.9,4.6-10.9,10.4-11.4
		c1.8-6.1,7.4-10.4,13.9-10.4c0.8,0,1.6,0.1,2.3,0.2c4.8,0.8,8.9,3.9,10.9,8.4c0.2,0.4,0.3,0.8,0.5,1.2c0.8,0.1,1.6,0.2,2.3,0.5
		c2.3,0.8,4.2,2.5,5.3,4.7c0.9-0.3,1.8-0.4,2.7-0.4c0.6,0,1.2,0.1,1.8,0.2c0.2,0,0.4,0.1,0.5,0.1C54.9,22,57.9,25.7,57.9,30z"/>
</g>
<g>
	<path class="st3" d="M12.1,36.3c-4.6,0-8.4-3.8-8.4-8.4c0-4.3,3.4-8,7.6-8.4l2.1-0.2l0.6-2c1.4-4.9,5.8-8.2,10.9-8.2
		c0.6,0,1.2,0.1,1.8,0.1c3.8,0.6,7.1,3.1,8.6,6.6c0.1,0.3,0.3,0.6,0.4,1l0.7,1.9l2,0.1c0.5,0,1,0.1,1.5,0.3c1.6,0.5,2.9,1.7,3.6,3.2
		l1.1,2.3l2.5-0.7c0.6-0.2,1.2-0.3,1.8-0.3c0.4,0,0.8,0,1.2,0.1l0.1,0c0.1,0,0.2,0,0.3,0.1c2.7,0.7,4.7,3.2,4.7,6.1
		c0,3.4-2.8,6.2-6.1,6.3H12.1z"/>
</g>
</svg>
