<?xml version="1.0" encoding="utf-8"?>
<!-- Generator: Adobe Illustrator 26.0.1, SVG Export Plug-In . SVG Version: 6.00 Build 0)  -->
<svg version="1.1" id="Layer_1" xmlns="http://www.w3.org/2000/svg" xmlns:xlink="http://www.w3.org/1999/xlink" x="0px" y="0px"
	 viewBox="0 0 64 64" style="enable-background:new 0 0 64 64;" xml:space="preserve">
<style type="text/css">
	.st0{fill:#BBE3FC;}
	.st1{fill:#FED402;}
	.st2{fill:#FAC600;}
	.st3{fill:#D8ECFE;}
	.st4{fill:#EAF6FF;}
	.st5{fill:#C6C5CA;}
	.st6{fill:#D8D7DA;}
	.st7{fill:#99DDFF;}
	.st8{fill:#C6C6C6;}
	.st9{fill:#DDDDDD;}
	.st10{fill:#BABABA;}
</style>
<g>
	<path class="st2" d="M50.4,32c0,10.2-8.2,18.4-18.4,18.4c-1,0-2-0.1-3-0.3c-8.7-1.4-15.4-9-15.4-18.2S20.2,15.3,29,13.8
		c1-0.2,2-0.3,3-0.3C42.2,13.6,50.4,21.8,50.4,32z"/>
</g>
<g>
	<path class="st1" d="M47.7,32c0,8.7-7,15.7-15.7,15.7c-0.9,0-1.7-0.1-2.6-0.2C22,46.3,16.3,39.8,16.3,32S22,17.7,29.4,16.5
		c0.8-0.1,1.7-0.2,2.6-0.2C40.7,16.3,47.7,23.3,47.7,32z"/>
</g>
<g>
	<path class="st1" d="M32,9.6c-0.6,0-1-0.4-1-1V2.9c0-0.6,0.4-1,1-1s1,0.4,1,1v5.7C33,9.2,32.6,9.6,32,9.6z"/>
</g>
<g>
	<path class="st1" d="M48.5,16.5c-0.3,0-0.5-0.1-0.7-0.3c-0.4-0.4-0.4-1,0-1.4l4-4c0.4-0.4,1-0.4,1.4,0s0.4,1,0,1.4l-4,4
		C49,16.4,48.8,16.5,48.5,16.5z"/>
</g>
<g>
	<path class="st1" d="M61.1,33h-5.7c-0.6,0-1-0.4-1-1s0.4-1,1-1h5.7c0.6,0,1,0.4,1,1S61.6,33,61.1,33z"/>
</g>
<g>
	<path class="st1" d="M52.6,53.6c-0.3,0-0.5-0.1-0.7-0.3l-4-4c-0.4-0.4-0.4-1,0-1.4s1-0.4,1.4,0l4,4c0.4,0.4,0.4,1,0,1.4
		C53.1,53.5,52.8,53.6,52.6,53.6z"/>
</g>
<g>
	<path class="st1" d="M32,62.1c-0.6,0-1-0.4-1-1v-5.7c0-0.6,0.4-1,1-1s1,0.4,1,1v5.7C33,61.6,32.6,62.1,32,62.1z"/>
</g>
<g>
	<path class="st1" d="M11.4,53.6c-0.3,0-0.5-0.1-0.7-0.3c-0.4-0.4-0.4-1,0-1.4l4-4c0.4-0.4,1-0.4,1.4,0s0.4,1,0,1.4l-4,4
		C12,53.5,11.7,53.6,11.4,53.6z"/>
</g>
<g>
	<path class="st1" d="M8.6,33H2.9c-0.6,0-1-0.4-1-1s0.4-1,1-1h5.7c0.6,0,1,0.4,1,1S9.2,33,8.6,33z"/>
</g>
<g>
	<path class="st1" d="M15.5,16.5c-0.3,0-0.5-0.1-0.7-0.3l-4-4c-0.4-0.4-0.4-1,0-1.4s1-0.4,1.4,0l4,4c0.4,0.4,0.4,1,0,1.4
		C16,16.4,15.7,16.5,15.5,16.5z"/>
</g>
<g>
	<circle class="st1" cx="41" cy="10.1" r="1.6"/>
</g>
<g>
	<circle class="st1" cx="53.8" cy="22.9" r="1.6"/>
</g>
<g>
	<circle class="st1" cx="53.9" cy="41" r="1.6"/>
</g>
<g>
	<circle class="st1" cx="41.1" cy="53.8" r="1.6"/>
</g>
<g>
	<circle class="st1" cx="23" cy="53.9" r="1.6"/>
</g>
<g>
	<circle class="st1" cx="10.2" cy="41.1" r="1.6"/>
</g>
<g>
	<circle class="st1" cx="10.1" cy="23" r="1.6"/>
</g>
<g>
	<circle class="st1" cx="22.9" cy="10.2" r="1.6"/>
</g>
</svg>
