<?xml version="1.0" encoding="utf-8"?>
<!-- Generator: Adobe Illustrator 26.0.1, SVG Export Plug-In . SVG Version: 6.00 Build 0)  -->
<svg version="1.1" id="Layer_1" xmlns="http://www.w3.org/2000/svg" xmlns:xlink="http://www.w3.org/1999/xlink" x="0px" y="0px"
	 viewBox="0 0 64 64" style="enable-background:new 0 0 64 64;" xml:space="preserve">
<style type="text/css">
	.st0{fill:#BBE3FC;}
	.st1{fill:#FED402;}
	.st2{fill:#FAC600;}
	.st3{fill:#D8ECFE;}
	.st4{fill:#EAF6FF;}
	.st5{fill:#C6C5CA;}
	.st6{fill:#D8D7DA;}
	.st7{fill:#99DDFF;}
	.st8{fill:#C6C6C6;}
	.st9{fill:#DDDDDD;}
	.st10{fill:#BABABA;}
</style>
<g>
	<path class="st0" d="M9.7,41.9c-0.4-0.6-0.8-1.1-1-1.4c0,0-0.1-0.1-0.1-0.1c0,0-0.1,0-0.1,0.1c-0.2,0.3-0.6,0.8-1,1.4
		c-0.5,0.8-0.7,1.4-0.7,1.9c0,1,0.8,1.8,1.8,1.8s1.8-0.8,1.8-1.8C10.4,43.3,10.2,42.7,9.7,41.9z"/>
</g>
<g>
	<path class="st0" d="M19.9,41.9c-0.4-0.6-0.8-1.1-1-1.4c0,0-0.1-0.1-0.1-0.1c0,0-0.1,0-0.1,0.1c-0.2,0.3-0.6,0.8-1,1.4
		c-0.5,0.8-0.7,1.4-0.7,1.9c0,1,0.8,1.8,1.8,1.8c1,0,1.8-0.8,1.8-1.8C20.6,43.3,20.4,42.7,19.9,41.9z"/>
</g>
<g>
	<path class="st0" d="M46.3,41.9c-0.4-0.6-0.8-1.1-1-1.4c0,0-0.1-0.1-0.1-0.1c0,0-0.1,0-0.1,0.1c-0.2,0.3-0.6,0.8-1,1.4
		c-0.5,0.8-0.7,1.4-0.7,1.9c0,1,0.8,1.8,1.8,1.8s1.8-0.8,1.8-1.8C47,43.3,46.8,42.7,46.3,41.9z"/>
</g>
<g>
	<path class="st0" d="M56.5,41.9c-0.4-0.6-0.8-1.1-1-1.4c0,0-0.1-0.1-0.1-0.1c0,0-0.1,0-0.1,0.1c-0.2,0.3-0.6,0.8-1,1.4
		c-0.5,0.8-0.7,1.4-0.7,1.9c0,1,0.8,1.8,1.8,1.8c1,0,1.8-0.8,1.8-1.8C57.2,43.3,57,42.7,56.5,41.9z"/>
</g>
<g>
	<path class="st0" d="M14.8,49.7c-0.4-0.6-0.8-1.1-1-1.4c0,0-0.1-0.1-0.1-0.1c0,0-0.1,0-0.1,0.1c-0.2,0.3-0.6,0.8-1,1.4
		c-0.5,0.8-0.7,1.4-0.7,1.9c0,1,0.8,1.8,1.8,1.8s1.8-0.8,1.8-1.8C15.5,51.1,15.3,50.5,14.8,49.7z"/>
</g>
<g>
	<path class="st0" d="M25,49.7c-0.4-0.6-0.8-1.1-1-1.4c0,0-0.1-0.1-0.1-0.1c0,0-0.1,0-0.1,0.1c-0.2,0.3-0.6,0.8-1,1.4
		c-0.5,0.8-0.7,1.4-0.7,1.9c0,1,0.8,1.8,1.8,1.8c1,0,1.8-0.8,1.8-1.8C25.7,51.1,25.5,50.5,25,49.7z"/>
</g>
<g>
	<path class="st0" d="M41.2,49.7c-0.4-0.6-0.8-1.1-1-1.4c0,0-0.1-0.1-0.1-0.1c0,0-0.1,0-0.1,0.1c-0.2,0.3-0.6,0.8-1,1.4
		c-0.5,0.8-0.7,1.4-0.7,1.9c0,1,0.8,1.8,1.8,1.8s1.8-0.8,1.8-1.8C41.9,51.1,41.7,50.5,41.2,49.7z"/>
</g>
<g>
	<path class="st0" d="M51.4,49.7c-0.4-0.6-0.8-1.1-1-1.4c0,0-0.1-0.1-0.1-0.1c0,0-0.1,0-0.1,0.1c-0.2,0.3-0.6,0.8-1,1.4
		c-0.5,0.8-0.7,1.4-0.7,1.9c0,1,0.8,1.8,1.8,1.8c1,0,1.8-0.8,1.8-1.8C52.1,51.1,51.9,50.5,51.4,49.7z"/>
</g>
<g>
	<path class="st0" d="M19.9,58.3c-0.4-0.6-0.8-1.1-1-1.4c0,0-0.1-0.1-0.1-0.1c0,0-0.1,0-0.1,0.1c-0.2,0.3-0.6,0.8-1,1.4
		c-0.5,0.8-0.7,1.4-0.7,1.9c0,1,0.8,1.8,1.8,1.8c1,0,1.8-0.8,1.8-1.8C20.6,59.7,20.4,59.1,19.9,58.3z"/>
</g>
<g>
	<path class="st0" d="M36.1,58.3c-0.4-0.6-0.8-1.1-1-1.4c0,0-0.1-0.1-0.1-0.1c0,0-0.1,0-0.1,0.1c-0.2,0.3-0.6,0.8-1,1.4
		c-0.5,0.8-0.7,1.4-0.7,1.9c0,1,0.8,1.8,1.8,1.8s1.8-0.8,1.8-1.8C36.8,59.7,36.6,59.1,36.1,58.3z"/>
</g>
<g>
	<path class="st0" d="M46.3,58.3c-0.4-0.6-0.8-1.1-1-1.4c0,0-0.1-0.1-0.1-0.1c0,0-0.1,0-0.1,0.1c-0.2,0.3-0.6,0.8-1,1.4
		c-0.5,0.8-0.7,1.4-0.7,1.9c0,1,0.8,1.8,1.8,1.8s1.8-0.8,1.8-1.8C47,59.7,46.8,59.1,46.3,58.3z"/>
</g>
<g>
	<polygon class="st1" points="26.8,35.4 37.5,35.4 34.3,43.2 39,43.2 26.9,59.9 29.4,48 25,48 	"/>
</g>
<g>
	<path class="st5" d="M60.4,29.4c0,5-4,9.1-9,9.2H14.9c-6.2,0-11.3-5.1-11.3-11.3c0-5.8,4.5-10.7,10.3-11.2
		c1.8-6,7.3-10.2,13.7-10.2c0.8,0,1.5,0.1,2.3,0.2c4.7,0.8,8.8,3.9,10.7,8.2c0.2,0.4,0.3,0.8,0.5,1.1c0.8,0.1,1.5,0.2,2.3,0.5
		c2.2,0.8,4.1,2.4,5.2,4.6c0.9-0.3,1.8-0.4,2.7-0.4c0.6,0,1.2,0.1,1.8,0.2c0.2,0,0.4,0.1,0.5,0.1C57.5,21.5,60.4,25.1,60.4,29.4z"/>
</g>
<g>
	<path class="st6" d="M14.9,35.6c-4.6,0-8.3-3.7-8.3-8.3c0-4.2,3.3-7.8,7.5-8.2l2-0.2l0.6-2c1.4-4.8,5.7-8.1,10.8-8.1
		c0.6,0,1.2,0,1.8,0.1c3.7,0.6,7,3.1,8.5,6.5c0.1,0.3,0.3,0.6,0.4,0.9l0.7,1.8l1.9,0.1c0.5,0,1,0.1,1.5,0.3c1.5,0.5,2.8,1.7,3.5,3.1
		l1.1,2.3l2.4-0.7c0.6-0.2,1.2-0.3,1.8-0.3c0.4,0,0.8,0,1.2,0.1l0.1,0c0.1,0,0.2,0,0.3,0.1c2.7,0.7,4.6,3.2,4.6,6
		c0,3.3-2.7,6.1-6.1,6.2H14.9z"/>
</g>
</svg>
