<?xml version="1.0" encoding="utf-8"?>
<!-- Generator: Adobe Illustrator 26.0.1, SVG Export Plug-In . SVG Version: 6.00 Build 0)  -->
<svg version="1.1" id="Layer_1" xmlns="http://www.w3.org/2000/svg" xmlns:xlink="http://www.w3.org/1999/xlink" x="0px" y="0px"
	 viewBox="0 0 64 64" style="enable-background:new 0 0 64 64;" xml:space="preserve">
<style type="text/css">
	.st0{fill:#BBE3FC;}
	.st1{fill:#FED402;}
	.st2{fill:#FAC600;}
	.st3{fill:#D8ECFE;}
	.st4{fill:#EAF6FF;}
	.st5{fill:#C6C5CA;}
	.st6{fill:#D8D7DA;}
	.st7{fill:#99DDFF;}
	.st8{fill:#C6C6C6;}
	.st9{fill:#DDDDDD;}
	.st10{fill:#BABABA;}
</style>
<g>
	<path class="st8" d="M56.9,11c0,0,0.5,6.4-4,10.4c0,0,0.2,4.3-4,6.6c0,0,0,5.2-6.2,8.2c0,0,0.3,4.2-6.4,8.6c0,0-3.6,7.9-12.4,12.9
		c-0.7,0.4-1.4-0.4-1-1c1.8-2.8,4.2-7.8,3.2-13.5c0,0-4.2-2-3.2-6.2c0,0-4.1-1.7-4.8-7c0,0-4.6-1.2-5.4-7.6c0,0-5.7-3.3-5.6-11.4
		H56.9z"/>
</g>
<g>
	<path class="st9" d="M26.5,53.7c1.3-3,2.1-6.7,1.4-10.9l-0.2-0.9l-0.9-0.4c-0.3-0.1-2.8-1.5-2.2-4.1l0.4-1.5l-1.4-0.6
		c-0.1,0-3.1-1.4-3.7-5.6l-0.2-1.2l-1.2-0.3c-0.1,0-3.4-1-4.1-6l-0.1-0.9l-0.8-0.5c-0.2-0.1-4-2.5-4.6-8h46
		c-0.2,1.9-0.9,5.1-3.3,7.3l-0.6,0.6l0,0.8c0,0.1,0,3.2-3,4.9l-1,0.5V28c0,0.1-0.2,4.1-5.2,6.5L40.8,35l0.1,1.2c0,0-0.1,3.3-5.6,7
		l-0.4,0.3L34.6,44C34.6,44.1,32.1,49.3,26.5,53.7z"/>
</g>
<g>
	<ellipse class="st10" cx="32" cy="11" rx="24.9" ry="4.7"/>
</g>
<g>
	<path class="st9" d="M54.6,11c-0.4,0.2-0.9,0.4-1.7,0.6c-0.5,0.2-1.2,0.4-2,0.5c-3.8,0.9-10.2,1.7-19,1.7c-8.8,0-15.1-0.8-19-1.7
		c-0.8-0.2-1.4-0.4-2-0.5c-0.7-0.2-1.3-0.4-1.7-0.6c2.2-1.2,9.9-2.9,22.6-2.9C44.6,8.1,52.3,9.8,54.6,11z"/>
</g>
<g>
	<path class="st8" d="M32,9.4c-9.8,0-17.1,1-20.9,2.2c0.5,0.2,1.2,0.4,2,0.5c3.8-0.9,10.2-1.7,19-1.7c8.8,0,15.2,0.8,19,1.7
		c0.8-0.2,1.4-0.4,2-0.5C49.1,10.4,41.8,9.4,32,9.4z"/>
</g>
<g>
	<path class="st8" d="M23.1,23.3C23.1,23.3,23.1,23.3,23.1,23.3C17.1,23,7.3,22,7.3,19.4c0-0.3,0.2-0.5,0.5-0.5s0.5,0.2,0.5,0.5
		c0,0.6,3.7,2.2,14.8,2.9c0.3,0,0.5,0.3,0.5,0.5C23.6,23.1,23.3,23.3,23.1,23.3z"/>
</g>
<g>
	<path class="st8" d="M43,23.2c-0.3,0-0.5-0.2-0.5-0.5c0-0.3,0.2-0.5,0.5-0.5c9.7-0.7,12.8-2.2,12.8-2.8c0-0.3,0.2-0.5,0.5-0.5
		s0.5,0.2,0.5,0.5C56.7,21.7,49.3,22.7,43,23.2C43,23.2,43,23.2,43,23.2z"/>
</g>
<g>
	<path class="st8" d="M44.5,30.5c-0.2,0-0.5-0.2-0.5-0.4c0-0.3,0.1-0.5,0.4-0.6c6.2-1,7.7-2.1,7.8-2.4c0-0.3,0.2-0.5,0.5-0.5
		c0.3,0,0.5,0.2,0.5,0.5C53.2,27.6,53.3,29.1,44.5,30.5C44.6,30.5,44.5,30.5,44.5,30.5z"/>
</g>
<g>
	<path class="st8" d="M26.3,31.8c-2.9,0-5.6-0.1-7.9-0.3c-5.7-0.6-6.4-1.6-6.5-2.3c0-0.3,0.2-0.5,0.5-0.5c0.3,0,0.5,0.2,0.5,0.5
		c0.2,0.9,7.2,2.2,19.7,1.5l1-0.1c0.3,0,0.5,0.2,0.5,0.5c0,0.3-0.2,0.5-0.5,0.5l-1,0.1C30.5,31.8,28.4,31.8,26.3,31.8z"/>
</g>
<g>
	<path class="st8" d="M24.3,40.7c0,0-0.1,0-0.1,0c-3.2-0.7-3.6-1.4-3.6-2c0-0.3,0.2-0.5,0.5-0.5c0.2,0,0.4,0.2,0.5,0.4
		c0.1,0.1,0.6,0.5,2.8,1c0.3,0.1,0.4,0.3,0.4,0.6C24.7,40.6,24.5,40.7,24.3,40.7z M21.6,38.8L21.6,38.8L21.6,38.8z"/>
</g>
<g>
	<path class="st8" d="M37,42c-1.9,0-3.8-0.1-4.8-0.2c-0.3,0-0.5-0.3-0.5-0.5c0-0.3,0.3-0.5,0.5-0.5c6.4,0.5,9.8-0.1,10.2-0.5
		c0.1-0.2,0.3-0.4,0.5-0.4c0.3,0,0.5,0.3,0.5,0.5C43.4,41.7,40.1,42,37,42z M42.5,40.4L42.5,40.4L42.5,40.4z"/>
</g>
</svg>
