<?xml version="1.0" encoding="utf-8"?>
<!-- Generator: Adobe Illustrator 26.0.1, SVG Export Plug-In . SVG Version: 6.00 Build 0)  -->
<svg version="1.1" id="Layer_1" xmlns="http://www.w3.org/2000/svg" xmlns:xlink="http://www.w3.org/1999/xlink" x="0px" y="0px"
	 viewBox="0 0 64 64" style="enable-background:new 0 0 64 64;" xml:space="preserve">
<style type="text/css">
	.st0{fill:#BBE3FC;}
	.st1{fill:#FED402;}
	.st2{fill:#FAC600;}
	.st3{fill:#D8ECFE;}
	.st4{fill:#EAF6FF;}
	.st5{fill:#C6C5CA;}
	.st6{fill:#D8D7DA;}
	.st7{fill:#99DDFF;}
	.st8{fill:#C6C6C6;}
	.st9{fill:#DDDDDD;}
	.st10{fill:#BABABA;}
</style>
<g>
	<path class="st5" d="M28.5,22.9H2.1c-0.6,0-1-0.4-1-1s0.4-1,1-1h26.4c2.2,0,4-1.8,4-4s-1.8-4-4-4s-4,1.8-4,4c0,0.6-0.4,1-1,1
		s-1-0.4-1-1c0-3.3,2.7-6,6-6c3.3,0,6,2.7,6,6S31.8,22.9,28.5,22.9z"/>
</g>
<g>
	<path class="st5" d="M52.1,32.3H1.7c-0.6,0-1-0.4-1-1s0.4-1,1-1h50.4c5,0,9.1-4.1,9.1-9.1c0-5-4.1-9.1-9.1-9.1S43,16.1,43,21.2
		c0,0.6-0.4,1-1,1s-1-0.4-1-1C41,15,46,10,52.1,10s11.1,5,11.1,11.1S58.3,32.3,52.1,32.3z"/>
</g>
<g>
	<path class="st5" d="M39.1,55.2c-4.4,0-8-3.6-8-8c0-0.6,0.4-1,1-1s1,0.4,1,1c0,3.3,2.7,6,6,6s6-2.7,6-6s-2.7-6-6-6H1.7
		c-0.6,0-1-0.4-1-1s0.4-1,1-1h37.4c4.4,0,8,3.6,8,8C47.1,51.6,43.5,55.2,39.1,55.2z"/>
</g>
<g>
	<path class="st3" d="M36.7,37.4H13.9c-3.5,0-6.3-2.8-6.3-6.3v0c0-3.5,2.8-6.3,6.3-6.3h22.7c3.5,0,6.3,2.8,6.3,6.3v0
		C43,34.6,40.1,37.4,36.7,37.4z"/>
</g>
</svg>
